<svg xmlns="http://www.w3.org/2000/svg" width="128" height="128">
  <rect width="124" height="124" x="2" y="2" fill="#363d52" stroke="#212532" stroke-width="4" rx="14"/>

  <!-- Tetris blocks falling above the head -->
  <g>
    <!-- Falling I-piece (4 blocks vertical, cyan) -->
    <rect x="68" y="6" width="10" height="10" rx="2" fill="#00f0f0" stroke="#009999" stroke-width="0.8"/>
    <rect x="68.5" y="6.5" width="5" height="2" rx="0.8" fill="#66ffff" opacity="0.6"/>

    <rect x="54" y="16" width="10" height="10" rx="2" fill="#00f0f0" stroke="#009999" stroke-width="0.8"/>
    <rect x="54.5" y="16.5" width="5" height="2" rx="0.8" fill="#66ffff" opacity="0.6"/>

    <rect x="68" y="26" width="10" height="10" rx="2" fill="#00f0f0" stroke="#009999" stroke-width="0.8"/>
    <rect x="68.5" y="26.5" width="5" height="2" rx="0.8" fill="#66ffff" opacity="0.6"/>

    <rect x="40" y="36" width="10" height="10" rx="2" fill="#00f0f0" stroke="#009999" stroke-width="0.8"/>
    <rect x="40.5" y="36.5" width="5" height="2" rx="0.8" fill="#66ffff" opacity="0.6"/>

    <!-- Falling L-piece (orange) at top-left -->
    <rect x="24" y="20" width="10" height="10" rx="2" fill="#f0a000" stroke="#996600" stroke-width="0.8"/>
    <rect x="24.5" y="20.5" width="5" height="2" rx="0.8" fill="#ffcc66" opacity="0.6"/>

    <rect x="24" y="30" width="10" height="10" rx="2" fill="#f0a000" stroke="#996600" stroke-width="0.8"/>
    <rect x="24.5" y="30.5" width="5" height="2" rx="0.8" fill="#ffcc66" opacity="0.6"/>

    <rect x="24" y="40" width="10" height="10" rx="2" fill="#f0a000" stroke="#996600" stroke-width="0.8"/>
    <rect x="24.5" y="40.5" width="5" height="2" rx="0.8" fill="#ffcc66" opacity="0.6"/>

    <rect x="34" y="40" width="10" height="10" rx="2" fill="#f0a000" stroke="#996600" stroke-width="0.8"/>
    <rect x="34.5" y="40.5" width="5" height="2" rx="0.8" fill="#ffcc66" opacity="0.6"/>
  </g>

  <!-- Godot head -->
  <g fill="#fff" transform="translate(12.322 12.322)scale(.101)">
    <path d="M105 673v33q407 354 814 0v-33z"/>
    <path fill="#478cbf" d="m105 673 152 14q12 1 15 14l4 67 132 10 8-61q2-11 15-15h162q13 4 15 15l8 61 132-10 4-67q3-13 15-14l152-14V427q30-39 56-81-35-59-83-108-43 20-82 47-40-37-88-64 7-51 8-102-59-28-123-42-26 43-46 89-49-7-98 0-20-46-46-89-64 14-123 42 1 51 8 102-48 27-88 64-39-27-82-47-48 49-83 108 26 42 56 81zm0 33v39c0 276 813 276 814 0v-39l-134 12-5 69q-2 10-14 13l-162 11q-12 0-16-11l-10-65H446l-10 65q-4 11-16 11l-162-11q-12-3-14-13l-5-69z"/>
    <path d="M483 600c0 34 58 34 58 0v-86c0-34-58-34-58 0z"/>
  </g>

  <!-- Tetris-style eyes (replacing circular eyes) -->
  <g transform="translate(12.322 12.322)scale(.101)">
    <!-- Left eye: cyan block -->
    <rect x="250" y="476" width="98" height="98" rx="10" fill="#00f0f0" stroke="#009999" stroke-width="2"/>
    <rect x="258" y="480" width="82" height="12" rx="3" fill="#66ffff" opacity="0.6"/>
    <rect x="258" y="558" width="82" height="8" rx="2" fill="#009999" opacity="0.4"/>

    <!-- Right eye: red block -->
    <rect x="676" y="476" width="98" height="98" rx="10" fill="#f00000" stroke="#990000" stroke-width="2"/>
    <rect x="684" y="480" width="82" height="12" rx="3" fill="#ff6666" opacity="0.6"/>
    <rect x="684" y="558" width="82" height="8" rx="2" fill="#990000" opacity="0.4"/>
  </g>

  <!-- Tetris blocks stacked below the head (T-piece) -->
  <g>
    <rect x="44" y="96" width="10" height="10" rx="2" fill="#e94560" stroke="#cc0044" stroke-width="0.8"/>
    <rect x="44.5" y="96.5" width="5" height="2" rx="0.8" fill="#ff6680" opacity="0.6"/>

    <rect x="54" y="96" width="10" height="10" rx="2" fill="#e94560" stroke="#cc0044" stroke-width="0.8"/>
    <rect x="54.5" y="96.5" width="5" height="2" rx="0.8" fill="#ff6680" opacity="0.6"/>

    <rect x="64" y="96" width="10" height="10" rx="2" fill="#e94560" stroke="#cc0044" stroke-width="0.8"/>
    <rect x="64.5" y="96.5" width="5" height="2" rx="0.8" fill="#ff6680" opacity="0.6"/>

    <rect x="54" y="86" width="10" height="10" rx="2" fill="#e94560" stroke="#cc0044" stroke-width="0.8"/>
    <rect x="54.5" y="86.5" width="5" height="2" rx="0.8" fill="#ff6680" opacity="0.6"/>
  </g>

  <!-- Ghost grid lines in the visor area -->
  <g transform="translate(28 60.5)" opacity="0.15" fill="none" stroke="#fff" stroke-width="0.4">
    <line x1="0" y1="5" x2="72" y2="5"/>
    <line x1="0" y1="10" x2="72" y2="10"/>
    <line x1="0" y1="15" x2="72" y2="15"/>
    <line x1="18" y1="0" x2="18" y2="20"/>
    <line x1="36" y1="0" x2="36" y2="20"/>
    <line x1="54" y1="0" x2="54" y2="20"/>
  </g>
</svg>